# xmcd
#
# Track frame offsets: 
#        150
#        12094
#        27783
#        38652
#        53311
#        64716
#        76326
#        86718
#        96688
#        115302
#        125662
#        139123
#        155171
#        164198
#        176327
#        188791
#        205063
#        218714
#        230079
#        241982
#
# Disc length: 3440 seconds
#
# Revision: 0
# Processed by: cddbd v1.5.1PL2 Copyright (c) Steve Scherf et al.
# Submitted via: ExactAudioCopy v0.95b3
#
DISCID=140d6e14
DTITLE=Various Artist - Country and Western From Nashville Tennessee [CD2)
DYEAR=2005
DGENRE=Country
TTITLE0=The Most Beautiful Girl - DAve Dudley
TTITLE1=I Know What It's All About Now, Mama - Karen O'Donnell
TTITLE2=Just In Case A night Like This - Bobby Bare
TTITLE3=Detroit City - Jonny Hill
TTITLE4=My Home Town - Ferlin Husky
TTITLE5=Sentimental Journey - Dave Dudley
TTITLE6=Bonjour Tristesse - Linda Manning
TTITLE7=The Fol On The Stool - Ronnie Rogers
TTITLE8=Yesterday´s Memories - Freddy Quinn
TTITLE9=The Night You Broke The News - Dave Dudley
TTITLE10=Mrs. Jones, Your Daughter Cried All Night - Bobby Bare
TTITLE11=If I Had The Chance - Rick Pilgreen
TTITLE12=Ring Of Fire - Jonny Hill
TTITLE13=It´s Good To Know She´s There - Ronnie Rogers
TTITLE14=Hello I´m A Jukebox
TTITLE15=The Best I Can Do - Tom Stewart
TTITLE16=Gren Green Grass Of Home - Freddy Quinn
TTITLE17=Footprints In The Sand Of Time - Bobby Bare
TTITLE18=Papa And Mana - Billy Grammer
TTITLE19=At The End Of The Day - Tom Stewart
EXTD=
EXTT0=
EXTT1=
EXTT2=
EXTT3=
EXTT4=
EXTT5=
EXTT6=
EXTT7=
EXTT8=
EXTT9=
EXTT10=
EXTT11=
EXTT12=
EXTT13=
EXTT14=
EXTT15=
EXTT16=
EXTT17=
EXTT18=
EXTT19=
PLAYORDER=
